<?xml version="1.0" encoding="UTF-8"?>
<svg width="24" height="24" viewBox="0 0 24 24" fill="none" xmlns="http://www.w3.org/2000/svg">
  <path d="M12 15C13.6569 15 15 13.6569 15 12C15 10.3431 13.6569 9 12 9C10.3431 9 9 10.3431 9 12C9 13.6569 10.3431 15 12 15Z" stroke="white" stroke-width="1.5"/>
  <path d="M12 6C16.4183 6 20 12 20 12C20 12 16.4183 18 12 18C7.58172 18 4 12 4 12C4 12 7.58172 6 12 6Z" stroke="white" stroke-width="1.5"/>
  <path d="M12 15V19" stroke="white" stroke-width="1.5" stroke-linecap="round"/>
  <path d="M12 5V9" stroke="white" stroke-width="1.5" stroke-linecap="round"/>
  <path d="M5 12H9" stroke="white" stroke-width="1.5" stroke-linecap="round"/>
  <path d="M15 12H19" stroke="white" stroke-width="1.5" stroke-linecap="round"/>
</svg> 