<?xml version="1.0" encoding="UTF-8"?>
<svg width="24" height="24" viewBox="0 0 24 24" fill="none" xmlns="http://www.w3.org/2000/svg">
  <path d="M12 12C14.2091 12 16 10.2091 16 8C16 5.79086 14.2091 4 12 4C9.79086 4 8 5.79086 8 8C8 10.2091 9.79086 12 12 12Z" stroke="white" stroke-width="1.5"/>
  <path d="M6 20C6 16.6863 8.68629 14 12 14C15.3137 14 18 16.6863 18 20" stroke="white" stroke-width="1.5" stroke-linecap="round"/>
  <path d="M18 8C19.1046 8 20 7.10457 20 6C20 4.89543 19.1046 4 18 4" stroke="white" stroke-width="1.5" stroke-linecap="round"/>
  <path d="M6 8C4.89543 8 4 7.10457 4 6C4 4.89543 4.89543 4 6 4" stroke="white" stroke-width="1.5" stroke-linecap="round"/>
</svg> 